# xmcd CD database file
#
# Track frame offsets:
#	150
#	19150
#	37632
#	53242
#	67607
#	81987
#	96920
#	113437
#	127155
#	143725
#	158850
#
# Disc length: 2425 seconds
#
# Revision: 3
# Processed by: cddbd v1.5.2PL0 Copyright (c) Steve Scherf et al.
# Submitted via: CDex 1.70beta2
#
DISCID=8409770b
DTITLE=Сюткин Валерий - Радио ночных дорог
DYEAR=1996
DGENRE=Pop
TTITLE0=Радио ночных дорог
TTITLE1=42 минуты
TTITLE2=Дождь пройдет...
TTITLE3=Не говори мне о любви
TTITLE4=Давай, вставай!
TTITLE5=30 градусов в тени
TTITLE6=Её здесь нет
TTITLE7=Зелёный смокинг
TTITLE8=Джаз ночных авто
TTITLE9=Тут и там
TTITLE10=На краю заката
EXTD=YEAR: 1996
EXTT0=
EXTT1=
EXTT2=
EXTT3=
EXTT4=
EXTT5=
EXTT6=
EXTT7=
EXTT8=
EXTT9=
EXTT10=
PLAYORDER=
